<svg xmlns="http://www.w3.org/2000/svg" width="20" height="20" viewBox="0 0 20 20" fill="none">
  <path d="M10.0887 0.836792C10.2657 0.849129 10.4383 0.897997 10.5953 0.980835L10.6728 1.02539L10.7466 1.07483C10.8905 1.17874 11.011 1.31165 11.1006 1.46484L11.1427 1.54297L11.1434 1.54358L13.0684 5.44312C13.1355 5.57862 13.2342 5.69598 13.3565 5.78491C13.4789 5.87395 13.6212 5.93197 13.7709 5.95398L18.0757 6.58386C18.2816 6.6138 18.476 6.69363 18.6434 6.8158L18.7129 6.87073L18.7795 6.92993C18.9283 7.07422 19.0398 7.25321 19.1042 7.45117C19.1777 7.67735 19.1867 7.91969 19.1298 8.15063C19.0728 8.38165 18.9523 8.59244 18.7819 8.75854L15.6679 11.7908C15.5595 11.8965 15.4785 12.027 15.4317 12.171C15.3848 12.3151 15.3733 12.4684 15.3987 12.6178L16.133 16.897L16.1458 16.9855C16.1675 17.1925 16.1381 17.4026 16.0597 17.5964C15.9702 17.8179 15.8202 18.0096 15.627 18.15C15.4336 18.2905 15.2044 18.3739 14.966 18.3905C14.7276 18.4071 14.4891 18.3563 14.2781 18.244L10.4341 16.2225C10.3001 16.1522 10.1509 16.1157 9.99956 16.1157C9.84815 16.1157 9.69904 16.1528 9.56499 16.2231L9.56438 16.2225L5.71916 18.2446L5.71977 18.2452C5.50897 18.3568 5.27102 18.4068 5.03313 18.3899C4.79509 18.373 4.56632 18.2898 4.37334 18.1494C4.18035 18.0091 4.03064 17.8171 3.94121 17.5958C3.85182 17.3746 3.82613 17.1326 3.86735 16.8976L4.601 12.6184L4.61381 12.5055C4.61927 12.3926 4.6038 12.2791 4.56865 12.171C4.52174 12.0269 4.44044 11.8959 4.33183 11.7902L1.22148 8.7616C1.04975 8.59572 0.92774 8.38534 0.869918 8.15369C0.812108 7.92197 0.820618 7.67833 0.894332 7.45117C0.968059 7.22414 1.10403 7.02245 1.28679 6.8689L1.35698 6.81396C1.50127 6.70901 1.66589 6.63519 1.84038 6.5979L1.92827 6.58264L6.2288 5.95398C6.37862 5.93216 6.52133 5.87387 6.64384 5.78491C6.76627 5.69599 6.86544 5.57874 6.93254 5.44312L8.85698 1.54358L8.85759 1.54297C8.96301 1.33002 9.12568 1.15073 9.32756 1.02539L9.40446 0.980835C9.58757 0.884127 9.7922 0.83374 10.0002 0.83374L10.0887 0.836792ZM8.42729 6.18042C8.24057 6.55834 7.96452 6.88606 7.62346 7.13379C7.28248 7.38141 6.88629 7.54184 6.46928 7.60254L2.94878 8.11768L5.49455 10.5963C5.7969 10.8908 6.02322 11.2545 6.15373 11.6559C6.28422 12.0572 6.31541 12.4845 6.24406 12.9004L5.64348 16.4014L8.78984 14.7473L8.93205 14.6783C9.26714 14.5276 9.63091 14.4489 9.99956 14.4489C10.3682 14.4489 10.732 14.5276 11.0671 14.6783L11.2093 14.7473L14.3569 16.402L13.7563 12.8992C13.6853 12.4835 13.7161 12.0562 13.8466 11.6553C13.9771 11.2543 14.2032 10.8912 14.5052 10.5969L17.0497 8.11768L13.5292 7.60315C13.1126 7.542 12.7168 7.38025 12.3763 7.13257C12.0358 6.8849 11.7602 6.55852 11.5737 6.18103L10.0002 2.99316L8.42729 6.18042Z" fill="#D1D5DC"/>
</svg>
