<svg width="16" height="16" viewBox="0 0 16 16" fill="none" xmlns="http://www.w3.org/2000/svg">
<path d="M7.68339 1.53009C7.7126 1.47107 7.75774 1.42138 7.81369 1.38664C7.86964 1.3519 7.93419 1.3335 8.00005 1.3335C8.06592 1.3335 8.13047 1.3519 8.18642 1.38664C8.24237 1.42138 8.28751 1.47107 8.31672 1.53009L9.85672 4.64943C9.95817 4.85474 10.1079 5.03236 10.2931 5.16706C10.4783 5.30176 10.6935 5.3895 10.9201 5.42276L14.3641 5.92676C14.4293 5.93621 14.4906 5.96374 14.541 6.00623C14.5915 6.04871 14.629 6.10446 14.6494 6.16716C14.6698 6.22987 14.6722 6.29703 14.6564 6.36105C14.6407 6.42507 14.6073 6.48339 14.5601 6.52943L12.0694 8.95476C11.9051 9.11483 11.7822 9.31242 11.7113 9.53051C11.6403 9.74861 11.6234 9.98069 11.6621 10.2068L12.2501 13.6334C12.2616 13.6987 12.2545 13.7658 12.2297 13.8272C12.2049 13.8886 12.1633 13.9418 12.1098 13.9808C12.0562 14.0197 11.9927 14.0428 11.9266 14.0474C11.8606 14.052 11.7945 14.0379 11.7361 14.0068L8.65739 12.3881C8.45453 12.2816 8.22884 12.2259 7.99972 12.2259C7.7706 12.2259 7.54491 12.2816 7.34205 12.3881L4.26406 14.0068C4.20561 14.0377 4.13965 14.0516 4.07369 14.0469C4.00773 14.0422 3.9444 14.0191 3.89092 13.9802C3.83744 13.9413 3.79594 13.8882 3.77116 13.8269C3.74638 13.7656 3.73929 13.6986 3.75072 13.6334L4.33806 10.2074C4.37685 9.98125 4.36004 9.74903 4.28908 9.53079C4.21812 9.31256 4.09513 9.11486 3.93072 8.95476L1.44006 6.53009C1.39245 6.48411 1.35872 6.42569 1.3427 6.36148C1.32668 6.29726 1.32901 6.22984 1.34944 6.16689C1.36987 6.10394 1.40757 6.04799 1.45824 6.00541C1.50891 5.96284 1.57052 5.93536 1.63606 5.92609L5.07939 5.42276C5.30623 5.38976 5.52165 5.30213 5.70711 5.16742C5.89257 5.0327 6.04252 4.85494 6.14405 4.64943L7.68339 1.53009Z" fill="#FDC700"/>
<path d="M8.07096 0.669434C8.21259 0.679303 8.35068 0.718398 8.47623 0.784668L8.53824 0.820312L8.59733 0.859863C8.71242 0.942988 8.80885 1.04932 8.88053 1.17188L8.91422 1.23438L8.91471 1.23486L10.4547 4.35449C10.5084 4.4629 10.5874 4.55678 10.6852 4.62793C10.7832 4.69916 10.8969 4.74558 11.0168 4.76318L14.4606 5.26709C14.6253 5.29104 14.7808 5.35491 14.9147 5.45264L14.9704 5.49658L15.0236 5.54395C15.1427 5.65938 15.2318 5.80257 15.2834 5.96094C15.3422 6.14188 15.3494 6.33575 15.3039 6.52051C15.2583 6.70532 15.1618 6.87395 15.0255 7.00684L12.5343 9.43262C12.4476 9.51722 12.3829 9.62161 12.3454 9.73682C12.3079 9.8521 12.2986 9.97474 12.319 10.0942L12.9064 13.5176L12.9167 13.5884C12.9341 13.754 12.9105 13.922 12.8478 14.0771C12.7762 14.2543 12.6562 14.4077 12.5016 14.52C12.3469 14.6324 12.1636 14.6991 11.9728 14.7124C11.7821 14.7257 11.5913 14.6851 11.4225 14.5952L8.34733 12.978C8.24013 12.9218 8.12073 12.8926 7.99967 12.8926C7.87854 12.8926 7.75926 12.9222 7.65201 12.9785L7.65153 12.978L4.57535 14.5957L4.57584 14.5962C4.4072 14.6854 4.21684 14.7254 4.02653 14.7119C3.8361 14.6984 3.65308 14.6318 3.49869 14.5195C3.34431 14.4072 3.22454 14.2536 3.15299 14.0767C3.08148 13.8997 3.06093 13.7061 3.09391 13.5181L3.68082 10.0947L3.69108 10.0044C3.69544 9.91407 3.68306 9.82329 3.65494 9.73682C3.61741 9.62149 3.55238 9.51674 3.46549 9.43213L0.977209 7.00928C0.839821 6.87658 0.742217 6.70827 0.695959 6.52295C0.649711 6.33757 0.656519 6.14266 0.71549 5.96094C0.774471 5.77931 0.883248 5.61796 1.02945 5.49512L1.08561 5.45117C1.20104 5.36721 1.33273 5.30815 1.47233 5.27832L1.54264 5.26611L4.98307 4.76318C5.10292 4.74573 5.21709 4.69909 5.3151 4.62793C5.41304 4.55679 5.49237 4.46299 5.54606 4.35449L7.08561 1.23486L7.0861 1.23438C7.17043 1.06401 7.30057 0.920581 7.46207 0.820312L7.5236 0.784668C7.67008 0.707302 7.83378 0.666992 8.00016 0.666992L8.07096 0.669434ZM6.74186 4.94434C6.59248 5.24668 6.37164 5.50884 6.09879 5.70703C5.82601 5.90513 5.50906 6.03347 5.17545 6.08203L2.35904 6.49414L4.39567 8.47705C4.63755 8.7126 4.8186 9.00363 4.92301 9.32471C5.0274 9.64577 5.05235 9.98756 4.99528 10.3203L4.51481 13.1211L7.0319 11.7979L7.14567 11.7427C7.41374 11.622 7.70475 11.5591 7.99967 11.5591C8.29457 11.5591 8.58561 11.6221 8.85367 11.7427L8.96744 11.7979L11.4855 13.1216L11.005 10.3193C10.9483 9.98682 10.9729 9.64499 11.0773 9.32422C11.1817 9.00344 11.3626 8.71298 11.6042 8.47754L13.6398 6.49414L10.8234 6.08252C10.4901 6.0336 10.1735 5.9042 9.90104 5.70605C9.62863 5.50792 9.40817 5.24681 9.25895 4.94482L8.00016 2.39453L6.74186 4.94434Z" fill="#FDC700"/>
</svg>
