<svg xmlns="http://www.w3.org/2000/svg" width="16" height="16" viewBox="0 0 16 16" fill="none">
  <g clip-path="url(#clip0_6115_22)">
    <path d="M13.9998 3.2124C13.9999 2.89083 13.8722 2.58241 13.6448 2.35498C13.4175 2.12755 13.109 1.99955 12.7874 1.99951C12.506 1.99948 12.2347 2.09758 12.0189 2.27441L11.93 2.35449L3.03255 11.2539L3.03206 11.2549C2.95474 11.332 2.89759 11.4269 2.86555 11.5312L2.16633 13.8325L4.47102 13.1338C4.57523 13.102 4.67022 13.0452 4.74739 12.9683L13.6444 4.06982L13.7249 3.98096C13.9018 3.76518 13.9998 3.49387 13.9998 3.2124ZM15.3333 3.2124C15.3332 3.8455 15.0972 4.45439 14.6741 4.92139L14.5872 5.0127L5.6888 13.9126C5.457 14.1437 5.17184 14.3144 4.85872 14.4097L1.95589 15.29L1.95442 15.2905C1.78157 15.3425 1.5977 15.3467 1.42268 15.3027C1.24772 15.2587 1.08798 15.168 0.96028 15.0405C0.83253 14.913 0.741393 14.7531 0.697096 14.5781C0.652806 14.4031 0.656655 14.2193 0.708327 14.0464L0.709303 14.0435L1.59016 11.1421L1.59065 11.1406C1.68667 10.8275 1.85786 10.5424 2.08967 10.311L10.9871 1.41211C11.4646 0.934771 12.1123 0.666465 12.7874 0.666504C13.4626 0.666589 14.1103 0.934648 14.5877 1.41211C15.0651 1.88958 15.3334 2.53725 15.3333 3.2124Z" fill="#0A0A0A"/>
    <path d="M9.52876 2.86206C9.78911 2.60171 10.2108 2.60171 10.4711 2.86206L13.1381 5.52856C13.3984 5.78892 13.3985 6.21111 13.1381 6.47144C12.8778 6.73176 12.4556 6.7317 12.1953 6.47144L9.52876 3.80444C9.26841 3.54409 9.26841 3.12241 9.52876 2.86206Z" fill="#0A0A0A"/>
  </g>
  <defs>
    <clipPath id="clip0_6115_22">
      <rect width="16" height="16" fill="white"/>
    </clipPath>
  </defs>
</svg>