<svg xmlns="http://www.w3.org/2000/svg" width="16" height="16" viewBox="0 0 16 16" fill="none">
  <g clip-path="url(#clip0_6115_30)">
    <path d="M6.00018 11.3333V7.33325C6.00018 6.96506 6.2985 6.66675 6.66669 6.66675C7.03488 6.66675 7.33319 6.96506 7.33319 7.33325V11.3333C7.33319 11.7014 7.03488 11.9998 6.66669 11.9998C6.2985 11.9998 6.00018 11.7014 6.00018 11.3333Z" fill="#D4183D"/>
    <path d="M8.66681 11.3333V7.33325C8.66681 6.96506 8.96512 6.66675 9.33331 6.66675C9.7015 6.66675 9.99982 6.96506 9.99982 7.33325V11.3333C9.99982 11.7014 9.7015 11.9998 9.33331 11.9998C8.96512 11.9998 8.66681 11.7014 8.66681 11.3333Z" fill="#D4183D"/>
    <path d="M2.66681 13.3335V4C2.66681 3.63181 2.96512 3.3335 3.33331 3.3335C3.7015 3.3335 3.99982 3.63181 3.99982 4V13.3335C3.99986 13.5102 4.07019 13.6797 4.19513 13.8047C4.32015 13.9297 4.49 14 4.66681 14H11.3333C11.5101 14 11.6795 13.9297 11.8045 13.8047C11.9295 13.6797 11.9998 13.5102 11.9998 13.3335V4C11.9998 3.63181 12.2986 3.3335 12.6668 3.3335C13.0349 3.33358 13.3333 3.63186 13.3333 4V13.3335C13.3333 13.8639 13.1224 14.3725 12.7474 14.7476C12.3723 15.1226 11.8637 15.3335 11.3333 15.3335H4.66681C4.13638 15.3335 3.62733 15.1226 3.25226 14.7476C2.87727 14.3725 2.66685 13.8638 2.66681 13.3335Z" fill="#D4183D"/>
    <path d="M14 3.3335C14.3682 3.3335 14.6665 3.63181 14.6665 4C14.6665 4.36819 14.3682 4.6665 14 4.6665H2C1.63181 4.6665 1.3335 4.36819 1.3335 4C1.3335 3.63181 1.63181 3.3335 2 3.3335H14Z" fill="#D4183D"/>
    <path d="M9.99982 3.99976V2.66675C9.99982 2.48994 9.92953 2.32009 9.8045 2.19507C9.6795 2.07015 9.51005 1.99976 9.33331 1.99976H6.66681C6.49 1.99976 6.32015 2.07004 6.19513 2.19507C6.07011 2.32009 5.99982 2.48994 5.99982 2.66675V3.99976C5.99982 4.36795 5.7015 4.66675 5.33331 4.66675C4.96512 4.66675 4.66681 4.36795 4.66681 3.99976V2.66675C4.66681 2.13631 4.87719 1.62727 5.25226 1.2522C5.62733 0.877125 6.13638 0.666748 6.66681 0.666748H9.33331C9.86367 0.666748 10.3723 0.877226 10.7474 1.2522C11.1224 1.62727 11.3333 2.13631 11.3333 2.66675V3.99976C11.3333 4.36789 11.0349 4.66666 10.6668 4.66675C10.2986 4.66675 9.99982 4.36795 9.99982 3.99976Z" fill="#D4183D"/>
  </g>
  <defs>
    <clipPath id="clip0_6115_30">
      <rect width="16" height="16" fill="white"/>
    </clipPath>
  </defs>
</svg>